<svg t="1782993517000" class="icon" viewBox="0 0 1024 1024" version="1.1" xmlns="http://www.w3.org/2000/svg" p-id="26940" width="256" height="256"><path d="M1004.637091 613.182061c-5.953939-18.032485-21.550545-30.592-41.720243-33.605819-9.510788-1.419636-20.402424-0.814545-33.291636 1.842425-22.465939 4.635152-39.133091 6.4-51.29697 6.741333 45.913212-77.517576 83.246545-165.915152 104.73891-249.126788 34.753939-134.551273 16.182303-195.847758-5.519516-223.573333C920.114424 42.073212 836.32097 2.649212 735.232 1.442909c-53.926788-0.659394-101.267394 9.987879-125.963636 17.644606-22.993455-4.057212-47.716848-6.322424-73.658182-6.741333-48.628364-0.775758-91.593697 9.82497-128.306424 31.612121-20.324848-6.873212-52.945455-16.562424-90.616243-22.745212-88.599273-14.545455-160.007758-3.211636-212.239515 33.687273C41.200485 99.576242 11.880727 177.198545 17.303273 285.610667c1.722182 34.420364 20.976485 139.147636 51.293091 238.467878 17.423515 57.088 36.002909 104.494545 55.222303 140.916364 27.256242 51.646061 56.420848 82.059636 89.161697 92.982303 18.350545 6.11297 51.692606 10.395152 86.760727-18.812121 4.445091 5.383758 10.375758 10.732606 18.245818 15.701333 9.995636 6.30303 22.217697 11.454061 34.424243 14.506667 43.989333 10.996364 85.193697 8.246303 120.347151-7.168 0.217212 6.252606 0.384 12.225939 0.523636 17.384727 0.232727 8.366545 0.465455 16.570182 0.771879 24.242424 2.082909 51.874909 5.612606 92.210424 16.069818 120.432485 0.574061 1.551515 1.345939 3.917576 2.160485 6.427152 5.21697 15.972848 13.940364 42.713212 36.134788 63.654788 22.981818 21.694061 50.781091 28.346182 76.241455 28.346181 12.76897 0 24.952242-1.675636 35.638303-3.964121 38.089697-8.164848 81.349818-20.600242 112.643878-65.159757 29.587394-42.123636 43.969939-105.56897 46.572607-205.53697 0.337455-2.827636 0.647758-5.527273 0.946424-8.098909l0.620606-5.282909 6.970182 0.612848 1.795878 0.120243c38.795636 1.768727 86.233212-6.458182 115.366788-19.991273 23.020606-10.682182 96.791273-49.629091 79.422061-102.209939" p-id="26941"></path><path d="M938.302061 623.406545c-115.355152 23.796364-123.287273-15.259152-123.287273-15.259151 121.793939-180.724364 172.710788-410.127515 128.775757-466.27297-119.870061-153.153939-327.365818-80.721455-330.829575-78.844121l-1.113212 0.201697c-22.791758-4.732121-48.294788-7.548121-76.96291-8.017455-52.19297-0.853333-91.787636 13.684364-121.832727 36.468364 0 0-370.152727-152.490667-352.934788 191.782788 3.661576 73.239273 104.975515 554.174061 225.815273 408.909576 44.167758-53.12 86.846061-98.032485 86.846061-98.032485 21.193697 14.08 46.568727 21.263515 73.169454 18.684121l2.067394-1.753212c-0.643879 6.593939-0.349091 13.044364 0.826182 20.681697-31.131152 34.781091-21.981091 40.886303-84.212364 53.697939-62.972121 12.978424-25.980121 36.080485-1.826909 42.123637 29.28097 7.319273 97.020121 17.691152 142.789818-46.382546l-1.82303 7.311515c12.194909 9.770667 20.759273 63.546182 19.324121 112.298667-1.435152 48.748606-2.393212 82.218667 7.214546 108.361697 9.615515 26.14303 19.192242 84.964848 101.003636 67.436606 68.355879-14.650182 103.780848-52.611879 108.710788-115.93697 3.494788-45.017212 11.411394-38.361212 11.907879-78.611394l6.349576-19.052606c7.319273-61.02497 1.163636-80.713697 43.275636-71.555878l10.24 0.899878c30.991515 1.408 71.563636-4.988121 95.375515-16.054303 51.269818-23.792485 81.679515-63.522909 31.123394-53.085091h0.007758" fill="#336791" p-id="26942"></path><path d="M434.71903 316.218182c-10.395152-1.446788-19.80897-0.108606-24.572121 3.498666-2.676364 2.028606-3.506424 4.379152-3.731394 5.996607-0.597333 4.286061 2.404848 9.025939 4.251152 11.469575 5.220848 6.919758 12.846545 11.675152 20.394666 12.722425 1.093818 0.155152 2.183758 0.22497 3.26594 0.224969 12.586667 0 24.03297-9.801697 25.041454-17.035636 1.260606-9.060848-11.892364-15.100121-24.649697-16.872727m344.374303 0.283151c-0.99297-7.102061-13.630061-9.126788-25.623272-7.458909-11.977697 1.667879-23.590788 7.074909-22.621091 14.192485 0.775758 5.53503 10.771394 14.983758 22.601697 14.983757 1.000727 0 2.009212-0.065939 3.025454-0.209454 7.897212-1.093818 13.692121-6.109091 16.446061-8.998788 4.189091-4.406303 6.617212-9.316848 6.171151-12.509091" fill="#FFFFFF" p-id="26943"></path><path d="M976.686545 620.70303c-4.398545-13.300364-18.556121-17.578667-42.07709-12.722424-69.837576 14.413576-94.848 4.429576-103.059394-1.617454 54.283636-82.695758 98.940121-182.659879 123.031272-275.925334 11.411394-44.179394 17.714424-85.209212 18.230303-118.652121 0.570182-36.70497-5.682424-63.678061-18.575515-80.155152-51.983515-66.424242-128.279273-102.054788-220.633212-103.032242-63.491879-0.713697-117.135515 15.534545-127.534545 20.103758-21.899636-5.445818-45.773576-8.789333-71.765334-9.216-47.662545-0.771879-88.86303 10.639515-122.973091 33.900606-14.81697-5.515636-53.108364-18.660848-99.936969-26.205091-80.958061-13.032727-145.291636-3.157333-191.20097 29.366303-54.780121 38.811152-80.069818 108.187152-75.170909 206.196363 1.648485 32.973576 20.437333 134.411636 50.086788 231.555879 39.028364 127.860364 81.454545 200.242424 126.091636 215.133091 5.224727 1.741576 11.248485 2.959515 17.892849 2.959515 16.283152 0 36.247273-7.338667 57.018181-32.310303a2055.105939 2055.105939 0 0 1 78.588122-88.925091c17.547636 9.417697 36.825212 14.677333 56.541091 15.204849 0.038788 0.515879 0.089212 1.031758 0.135757 1.543757a456.378182 456.378182 0 0 0-9.968485 12.315152c-13.661091 17.342061-16.504242 20.953212-60.47806 30.006303-12.509091 2.583273-45.730909 9.429333-46.219637 32.717576-0.527515 25.444848 39.272727 36.130909 43.807031 37.263515 15.802182 3.956364 31.026424 5.907394 45.544727 5.907394 35.308606 0 66.381576-11.605333 91.213576-34.059637-0.764121 90.709333 3.017697 180.092121 13.909333 207.325091 8.921212 22.295273 30.712242 76.780606 99.545212 76.776728 10.100364 0 21.21697-1.175273 33.446788-3.797334 71.83903-15.398788 103.036121-47.150545 115.10303-117.15103 6.458182-37.410909 17.539879-126.743273 22.75297-174.661818 11.000242 3.432727 25.161697 5.003636 40.471273 4.999757 31.930182 0 68.774788-6.784 91.880727-17.508848 25.956848-12.055273 72.797091-41.634909 64.302545-67.335758z m-171.077818-323.801212c-0.236606 14.145939-2.183758 26.988606-4.247272 40.393697-2.222545 14.417455-4.518788 29.323636-5.096728 47.418182-0.570182 17.609697 1.629091 35.917576 3.754667 53.624242 4.297697 35.762424 8.707879 72.579879-8.362667 108.908606a141.606788 141.606788 0 0 1-7.563636-15.55006c-2.121697-5.143273-6.729697-13.405091-13.110303-24.839758-24.820364-44.51297-82.944-148.751515-53.189818-191.286303 8.86303-12.660364 31.356121-25.677576 87.815757-18.668606z m-68.437333-239.658666c82.750061 1.826909 148.208485 32.783515 194.552242 92.004848 35.545212 45.424485-3.595636 252.113455-116.906666 430.425212a664.552727 664.552727 0 0 0-3.436606-4.332606l-1.435152-1.792c29.28097-48.356848 23.555879-96.201697 18.459152-138.620121-2.094545-17.408-4.072727-33.850182-3.568485-49.295515 0.519758-16.368485 2.684121-30.409697 4.778666-43.985455 2.571636-16.729212 5.189818-34.040242 4.468364-54.446545 0.539152-2.141091 0.756364-4.670061 0.473212-7.672243-1.842424-19.568485-24.184242-78.134303-69.721212-131.141818-24.909576-28.993939-61.234424-61.44-110.832485-83.324121 21.333333-4.421818 50.505697-8.54497 83.16897-7.819636zM274.129455 681.805576c-22.884848 27.516121-38.68703 22.24097-43.884607 20.51103-33.861818-11.29503-73.153939-82.866424-107.795393-196.359758-29.975273-98.203152-47.491879-196.953212-48.880485-224.643878-4.375273-87.575273 16.853333-148.608 63.100121-181.407031 75.264-53.372121 199.005091-21.426424 248.727273-5.224727-0.713697 0.705939-1.458424 1.365333-2.164364 2.082909-81.594182 82.40097-79.658667 223.185455-79.45697 231.792485-0.007758 3.320242 0.271515 8.021333 0.651637 14.487273 1.404121 23.68 4.018424 67.750788-2.963394 117.659151-6.485333 46.378667 7.811879 91.772121 39.218424 124.544a140.70303 140.70303 0 0 0 10.150788 9.572849c-13.979152 14.972121-44.361697 48.081455-76.70303 86.985697z m87.191272-116.336485c-25.31297-26.414545-36.809697-63.154424-31.546182-100.809697 7.369697-52.720485 4.650667-98.637576 3.188364-123.306667-0.205576-3.452121-0.387879-6.477576-0.492606-8.86303 11.919515-10.569697 67.157333-40.164848 106.550303-31.138909 17.974303 4.115394 28.928 16.356848 33.481697 37.410909 23.567515 109.005576 3.118545 154.437818-13.312 190.948848-3.386182 7.52097-6.586182 14.630788-9.316848 21.98497l-2.117819 5.686303c-5.360485 14.374788-10.348606 27.741091-13.44 40.432485-26.91103-0.077576-53.08897-11.574303-72.994909-32.349091z m4.130909 147.006061c-7.858424-1.962667-14.925576-5.372121-19.072-8.199758 3.463758-1.629091 9.627152-3.847758 20.317091-6.050909 51.731394-10.647273 59.721697-18.164364 77.168485-40.316121 3.99903-5.081212 8.533333-10.837333 14.813091-17.850182l0.007758-0.007758c9.351758-10.472727 13.630061-8.696242 21.387636-5.476848 6.287515 2.598788 12.412121 10.480485 14.894545 19.153454 1.175273 4.096 2.494061 11.869091-1.82303 17.92-36.445091 51.029333-89.553455 50.373818-127.693576 40.828122z m270.735516 251.93503c-63.286303 13.560242-85.694061-18.730667-100.460607-55.645091-9.530182-23.831273-14.215758-131.29697-10.891636-249.976243 0.042667-1.578667-0.182303-3.10303-0.616727-4.538181a59.904 59.904 0 0 0-1.768727-8.38594c-4.941576-17.268364-16.985212-31.71297-31.433697-37.701818-5.740606-2.377697-16.275394-6.741333-28.935758-3.502545 2.699636-11.124364 7.381333-23.687758 12.458667-37.290667l2.129454-5.721212c2.397091-6.450424 5.40703-13.133576 8.587637-20.208485 17.194667-38.198303 40.742788-90.519273 15.185454-208.717576-9.572848-44.272485-41.541818-65.892848-90.003394-60.869818-29.052121 3.006061-55.633455 14.727758-68.891151 21.449697-2.850909 1.442909-5.457455 2.839273-7.893334 4.196849 3.700364-44.606061 17.679515-127.96897 69.973334-180.712728 32.92703-33.202424 76.776727-49.601939 130.203151-48.717576 105.270303 1.722182 172.776727 55.745939 210.874182 100.767031 32.830061 38.791758 50.606545 77.870545 57.700848 98.947879-53.352727-5.426424-89.638788 5.104485-108.032 31.402666-40.017455 57.204364 21.891879 168.230788 51.646061 221.591273 5.457455 9.778424 10.166303 18.230303 11.648 21.822061 9.689212 23.482182 22.233212 39.160242 31.39103 50.602666 2.808242 3.506424 5.531152 6.908121 7.602425 9.879273-16.15903 4.658424-45.184 15.422061-42.538667 69.224727-2.133333 26.996364-17.303273 153.390545-25.010424 198.047031-10.174061 58.996364-31.883636 80.969697-92.924121 94.060606z m264.160969-302.297212c-16.523636 7.668364-44.175515 13.420606-70.442666 14.657939-29.013333 1.357576-43.783758-3.250424-47.259152-6.085818-1.629091-33.528242 10.84897-37.030788 24.056242-40.738909 2.075152-0.581818 4.099879-1.152 6.054788-1.834667 1.214061 0.989091 2.544485 1.970424 4.002909 2.932364 23.319273 15.39103 64.911515 17.051152 123.632485 4.929939l0.643879-0.128c-7.920485 7.404606-21.47297 17.342061-40.688485 26.267152z" fill="#FFFFFF" p-id="26944"></path></svg>